%TF.GenerationSoftware,Altium Limited,Altium Designer,24.6.1 (21)*%
G04 Layer_Physical_Order=1*
G04 Layer_Color=255*
%FSLAX45Y45*%
%MOMM*%
%TF.SameCoordinates,998BC942-C911-4A9E-BC0A-61954E215518*%
%TF.FilePolarity,Positive*%
%TF.FileFunction,Copper,L1,Top,Signal*%
%TF.Part,Single*%
G01*
G75*
%TA.AperFunction,SMDPad,CuDef*%
G04:AMPARAMS|DCode=10|XSize=0.6mm|YSize=0.7mm|CornerRadius=0.075mm|HoleSize=0mm|Usage=FLASHONLY|Rotation=90.000|XOffset=0mm|YOffset=0mm|HoleType=Round|Shape=RoundedRectangle|*
%AMROUNDEDRECTD10*
21,1,0.60000,0.55000,0,0,90.0*
21,1,0.45000,0.70000,0,0,90.0*
1,1,0.15000,0.27500,0.22500*
1,1,0.15000,0.27500,-0.22500*
1,1,0.15000,-0.27500,-0.22500*
1,1,0.15000,-0.27500,0.22500*
%
%ADD10ROUNDEDRECTD10*%
%ADD11O,0.80000X0.25000*%
%ADD12O,0.25000X0.80000*%
%ADD13R,5.60000X5.60000*%
%ADD14R,3.50000X1.25000*%
%ADD15R,1.25000X1.25000*%
G04:AMPARAMS|DCode=16|XSize=1.4mm|YSize=1.7mm|CornerRadius=0.175mm|HoleSize=0mm|Usage=FLASHONLY|Rotation=270.000|XOffset=0mm|YOffset=0mm|HoleType=Round|Shape=RoundedRectangle|*
%AMROUNDEDRECTD16*
21,1,1.40000,1.35000,0,0,270.0*
21,1,1.05000,1.70000,0,0,270.0*
1,1,0.35000,-0.67500,-0.52500*
1,1,0.35000,-0.67500,0.52500*
1,1,0.35000,0.67500,0.52500*
1,1,0.35000,0.67500,-0.52500*
%
%ADD16ROUNDEDRECTD16*%
%ADD17R,0.35000X0.80000*%
%ADD18R,0.85000X0.35000*%
%ADD19R,2.60000X2.70000*%
G04:AMPARAMS|DCode=20|XSize=0.8mm|YSize=1mm|CornerRadius=0.1mm|HoleSize=0mm|Usage=FLASHONLY|Rotation=0.000|XOffset=0mm|YOffset=0mm|HoleType=Round|Shape=RoundedRectangle|*
%AMROUNDEDRECTD20*
21,1,0.80000,0.80000,0,0,0.0*
21,1,0.60000,1.00000,0,0,0.0*
1,1,0.20000,0.30000,-0.40000*
1,1,0.20000,-0.30000,-0.40000*
1,1,0.20000,-0.30000,0.40000*
1,1,0.20000,0.30000,0.40000*
%
%ADD20ROUNDEDRECTD20*%
G04:AMPARAMS|DCode=21|XSize=1.3mm|YSize=1.1mm|CornerRadius=0.055mm|HoleSize=0mm|Usage=FLASHONLY|Rotation=0.000|XOffset=0mm|YOffset=0mm|HoleType=Round|Shape=RoundedRectangle|*
%AMROUNDEDRECTD21*
21,1,1.30000,0.99000,0,0,0.0*
21,1,1.19000,1.10000,0,0,0.0*
1,1,0.11000,0.59500,-0.49500*
1,1,0.11000,-0.59500,-0.49500*
1,1,0.11000,-0.59500,0.49500*
1,1,0.11000,0.59500,0.49500*
%
%ADD21ROUNDEDRECTD21*%
G04:AMPARAMS|DCode=22|XSize=0.6mm|YSize=0.7mm|CornerRadius=0.075mm|HoleSize=0mm|Usage=FLASHONLY|Rotation=180.000|XOffset=0mm|YOffset=0mm|HoleType=Round|Shape=RoundedRectangle|*
%AMROUNDEDRECTD22*
21,1,0.60000,0.55000,0,0,180.0*
21,1,0.45000,0.70000,0,0,180.0*
1,1,0.15000,-0.22500,0.27500*
1,1,0.15000,0.22500,0.27500*
1,1,0.15000,0.22500,-0.27500*
1,1,0.15000,-0.22500,-0.27500*
%
%ADD22ROUNDEDRECTD22*%
G04:AMPARAMS|DCode=23|XSize=0.8mm|YSize=1mm|CornerRadius=0.1mm|HoleSize=0mm|Usage=FLASHONLY|Rotation=90.000|XOffset=0mm|YOffset=0mm|HoleType=Round|Shape=RoundedRectangle|*
%AMROUNDEDRECTD23*
21,1,0.80000,0.80000,0,0,90.0*
21,1,0.60000,1.00000,0,0,90.0*
1,1,0.20000,0.40000,0.30000*
1,1,0.20000,0.40000,-0.30000*
1,1,0.20000,-0.40000,-0.30000*
1,1,0.20000,-0.40000,0.30000*
%
%ADD23ROUNDEDRECTD23*%
%TA.AperFunction,ConnectorPad*%
%ADD24R,1.30000X1.65000*%
%ADD25R,1.90000X1.80000*%
%ADD26R,1.90000X1.00000*%
%ADD27R,1.55000X1.42500*%
%ADD28R,1.38000X0.45000*%
%TA.AperFunction,SMDPad,CuDef*%
G04:AMPARAMS|DCode=29|XSize=0.6mm|YSize=1.2mm|CornerRadius=0.075mm|HoleSize=0mm|Usage=FLASHONLY|Rotation=90.000|XOffset=0mm|YOffset=0mm|HoleType=Round|Shape=RoundedRectangle|*
%AMROUNDEDRECTD29*
21,1,0.60000,1.05000,0,0,90.0*
21,1,0.45000,1.20000,0,0,90.0*
1,1,0.15000,0.52500,0.22500*
1,1,0.15000,0.52500,-0.22500*
1,1,0.15000,-0.52500,-0.22500*
1,1,0.15000,-0.52500,0.22500*
%
%ADD29ROUNDEDRECTD29*%
%ADD30R,1.00000X2.90000*%
%ADD31R,0.65000X1.70000*%
%TA.AperFunction,BGAPad,CuDef*%
%ADD32C,0.86300*%
%TA.AperFunction,SMDPad,CuDef*%
G04:AMPARAMS|DCode=33|XSize=1.4mm|YSize=1.7mm|CornerRadius=0.175mm|HoleSize=0mm|Usage=FLASHONLY|Rotation=180.000|XOffset=0mm|YOffset=0mm|HoleType=Round|Shape=RoundedRectangle|*
%AMROUNDEDRECTD33*
21,1,1.40000,1.35000,0,0,180.0*
21,1,1.05000,1.70000,0,0,180.0*
1,1,0.35000,-0.52500,0.67500*
1,1,0.35000,0.52500,0.67500*
1,1,0.35000,0.52500,-0.67500*
1,1,0.35000,-0.52500,-0.67500*
%
%ADD33ROUNDEDRECTD33*%
%TA.AperFunction,Conductor*%
%ADD34C,0.25000*%
%ADD35C,0.30000*%
%ADD36C,0.50000*%
%ADD37C,0.75000*%
%ADD38C,1.00000*%
%ADD39C,0.26017*%
%ADD40C,0.40000*%
%ADD41C,0.20000*%
%TA.AperFunction,ViaPad*%
%ADD42C,3.20000*%
%TA.AperFunction,ComponentPad*%
%ADD43C,1.06700*%
%TA.AperFunction,ViaPad*%
%ADD44C,0.60000*%
%ADD45C,0.50000*%
%ADD46C,0.70000*%
G36*
X10913835Y6957607D02*
X10917108Y6951023D01*
Y6724608D01*
X10897888Y6705388D01*
X10780000D01*
X10737500Y6685000D01*
X10645000D01*
X10502500Y6542500D01*
Y6340000D01*
X10477999Y6315499D01*
X10477999Y6315499D01*
X10477998Y6315499D01*
X10476028Y6315107D01*
D01*
X10475492Y6315000D01*
X10473484D01*
X10459611D01*
X10459608Y6315001D01*
X10459606Y6315000D01*
X10398620D01*
X10382135Y6295876D01*
X10382500Y6165000D01*
X10362500Y6145000D01*
X10237500D01*
X10212500Y6170000D01*
Y6427500D01*
X10570000Y6785000D01*
X10752701Y6784081D01*
X10768060Y6799440D01*
X10788060Y6819440D01*
X10787563Y6943290D01*
X10801372Y6957610D01*
X10913835Y6957607D01*
D02*
G37*
G36*
X11357547Y7105019D02*
X11357500Y7077500D01*
X11162500D01*
X11075466Y6990466D01*
Y6699307D01*
X11069158Y6692999D01*
X11066650Y6692500D01*
X10946315D01*
X10943808Y6692999D01*
X10937500Y6699307D01*
Y6962500D01*
X11100000Y7125000D01*
X11337622D01*
X11357547Y7105019D01*
D02*
G37*
G36*
X10936005Y6674159D02*
X10937975Y6673767D01*
X10939830Y6672999D01*
X10942336Y6672500D01*
X10944345D01*
X10946315Y6672108D01*
X11066650D01*
X11068620Y6672500D01*
X11070628D01*
X11073135Y6672998D01*
X11074991Y6673767D01*
X11086047Y6664103D01*
X11090000Y6659728D01*
Y6480000D01*
X11070000Y6460000D01*
X10837500Y6460000D01*
X10815000Y6437500D01*
Y6347500D01*
X10842500Y6320000D01*
X11102500D01*
X11135000Y6287500D01*
Y6012500D01*
X11122500Y6000000D01*
Y5995000D01*
X10937500D01*
X10915000Y6017500D01*
Y6125000D01*
X10895000Y6145000D01*
X10697500D01*
X10677500Y6165000D01*
Y6305000D01*
X10662500Y6320000D01*
X10582453D01*
X10580813Y6320382D01*
X10580483Y6320327D01*
X10580156Y6320392D01*
X10544608D01*
X10535000Y6330000D01*
Y6505000D01*
X10552500Y6522500D01*
X10717500D01*
X10790000Y6595000D01*
Y6657500D01*
X10807500Y6675000D01*
X10934745D01*
X10936005Y6674159D01*
D02*
G37*
G36*
X10620000Y6257500D02*
Y5997500D01*
X10665000Y5925000D01*
X10875000D01*
X10900000Y5950000D01*
X11125000D01*
X11142500Y5932500D01*
Y5775000D01*
X11112500Y5745000D01*
X11027500D01*
X10990000Y5722500D01*
X10790000D01*
X10730000Y5662500D01*
Y5520000D01*
X10690000Y5492500D01*
X10350803Y5490803D01*
X10350000Y5490000D01*
Y5492500D01*
X10312500Y5530000D01*
Y5677500D01*
X10422500Y5787500D01*
Y6257500D01*
X10459609Y6294609D01*
X10459611Y6294608D01*
X10475492D01*
X10477463Y6295000D01*
X10479473Y6295001D01*
X10480006Y6295107D01*
X10480007D01*
X10481977Y6295499D01*
X10482442Y6295691D01*
X10482944Y6295716D01*
X10482944Y6295716D01*
X10484315Y6296363D01*
X10485802Y6296659D01*
X10487473Y6297775D01*
X10489328Y6298544D01*
X10489683Y6298899D01*
X10490139Y6299114D01*
X10490942Y6300000D01*
X10580156D01*
X10620000Y6257500D01*
D02*
G37*
D10*
X9407500Y8052500D02*
D03*
Y7952500D02*
D03*
X8725000Y8227500D02*
D03*
Y8327500D02*
D03*
Y8017500D02*
D03*
Y8117500D02*
D03*
X9130000Y7280000D02*
D03*
Y7380000D02*
D03*
X9132500Y7007500D02*
D03*
Y6907500D02*
D03*
X11250000Y5900000D02*
D03*
Y5800000D02*
D03*
Y6150000D02*
D03*
Y6050000D02*
D03*
X9587500Y7837500D02*
D03*
Y7737500D02*
D03*
X10130000Y7450000D02*
D03*
Y7350000D02*
D03*
D11*
X9325000Y7380000D02*
D03*
Y7330000D02*
D03*
Y7280000D02*
D03*
Y7230000D02*
D03*
Y7180000D02*
D03*
Y7130000D02*
D03*
Y7080000D02*
D03*
Y7030000D02*
D03*
Y6980000D02*
D03*
Y6930000D02*
D03*
Y6880000D02*
D03*
Y6830000D02*
D03*
X10005000D02*
D03*
Y6880000D02*
D03*
Y6930000D02*
D03*
Y6980000D02*
D03*
Y7030000D02*
D03*
Y7080000D02*
D03*
Y7130000D02*
D03*
Y7180000D02*
D03*
Y7230000D02*
D03*
Y7280000D02*
D03*
Y7330000D02*
D03*
Y7380000D02*
D03*
D12*
X9390000Y6765000D02*
D03*
X9440000D02*
D03*
X9490000D02*
D03*
X9540000D02*
D03*
X9590000D02*
D03*
X9640000D02*
D03*
X9690000D02*
D03*
X9740000D02*
D03*
X9790000D02*
D03*
X9840000D02*
D03*
X9890000D02*
D03*
X9940000D02*
D03*
Y7445000D02*
D03*
X9890000D02*
D03*
X9840000D02*
D03*
X9790000D02*
D03*
X9740000D02*
D03*
X9690000D02*
D03*
X9640000D02*
D03*
X9590000D02*
D03*
X9540000D02*
D03*
X9490000D02*
D03*
X9440000D02*
D03*
X9390000D02*
D03*
D13*
X9665000Y7105000D02*
D03*
D14*
X10525000Y5570500D02*
D03*
D15*
X10296000Y6229500D02*
D03*
X10525000D02*
D03*
X10754000D02*
D03*
D16*
X11025000Y6089300D02*
D03*
Y5860700D02*
D03*
D17*
X9207500Y8350000D02*
D03*
X9157500D02*
D03*
X9107500D02*
D03*
X9057500D02*
D03*
X9007500D02*
D03*
X8957500D02*
D03*
X9207500Y7950000D02*
D03*
X9157500D02*
D03*
X9107500D02*
D03*
X9057500D02*
D03*
X9007500D02*
D03*
X8957500D02*
D03*
D18*
X8885000Y8275000D02*
D03*
Y8225000D02*
D03*
Y8175000D02*
D03*
Y8125000D02*
D03*
Y8075000D02*
D03*
Y8025000D02*
D03*
X9280000Y8275000D02*
D03*
Y8225000D02*
D03*
Y8175000D02*
D03*
Y8125000D02*
D03*
Y8075000D02*
D03*
Y8025000D02*
D03*
D19*
X9082500Y8150000D02*
D03*
D20*
X9830000Y6607500D02*
D03*
X9680000D02*
D03*
D21*
X8600000Y6745000D02*
D03*
Y6555000D02*
D03*
X8830000Y6745000D02*
D03*
Y6555000D02*
D03*
D22*
X8902500Y7030000D02*
D03*
X8802500D02*
D03*
X8580000Y6905000D02*
D03*
X8680000D02*
D03*
X8902500D02*
D03*
X8802500D02*
D03*
X9440000Y7570000D02*
D03*
X9340000D02*
D03*
X8957500Y7825000D02*
D03*
X9057500D02*
D03*
X10351000Y8409500D02*
D03*
X10451000D02*
D03*
X10576000D02*
D03*
X10676000D02*
D03*
X10883500Y6892500D02*
D03*
X10983500D02*
D03*
X9715000Y7965000D02*
D03*
X9615000D02*
D03*
X9835000D02*
D03*
X9935000D02*
D03*
X10150000Y6725000D02*
D03*
X10250000D02*
D03*
X10145000Y6880000D02*
D03*
X10245000D02*
D03*
X10047500Y6610000D02*
D03*
X9947500D02*
D03*
D23*
X8980000Y7405000D02*
D03*
Y7255000D02*
D03*
X10858500Y6767500D02*
D03*
Y6617500D02*
D03*
X11008500Y6767500D02*
D03*
Y6617500D02*
D03*
D24*
X11540000Y6895000D02*
D03*
Y7570000D02*
D03*
D25*
Y7117500D02*
D03*
D26*
Y7387500D02*
D03*
D27*
X11282500Y6983750D02*
D03*
Y7481250D02*
D03*
D28*
X11274000Y7102500D02*
D03*
Y7167500D02*
D03*
Y7232500D02*
D03*
Y7297500D02*
D03*
Y7362500D02*
D03*
D29*
X10630000Y7105000D02*
D03*
Y7200000D02*
D03*
Y7295000D02*
D03*
X10870000D02*
D03*
Y7200000D02*
D03*
Y7105000D02*
D03*
D30*
X9847500Y5385000D02*
D03*
X8852500D02*
D03*
D31*
X9662500Y5665000D02*
D03*
X9287500D02*
D03*
X9537500D02*
D03*
X9412500D02*
D03*
X9162500D02*
D03*
X9037500D02*
D03*
D32*
X10446000Y8050000D02*
D03*
X10573000D02*
D03*
X10700000D02*
D03*
X10446000Y8177000D02*
D03*
X10573000D02*
D03*
X10700000D02*
D03*
D33*
X10395700Y6422500D02*
D03*
X10624300D02*
D03*
D34*
X9230000Y7455000D02*
Y7522500D01*
X9277500Y7570000D02*
X9340000D01*
X9230000Y7522500D02*
X9277500Y7570000D01*
X9240000Y7445000D02*
X9390000D01*
Y7472500D01*
X9230000Y7455000D02*
X9240000Y7445000D01*
X8966931Y7616606D02*
X8967825Y7617500D01*
X8796425Y7616606D02*
X8966931D01*
X8967825Y7617500D02*
X9097500D01*
X9180000Y7700000D01*
X8711155Y7701877D02*
X8796425Y7616606D01*
X9540000Y7445000D02*
Y7672500D01*
X9387500Y7747500D02*
X9465000D01*
X9540000Y7672500D01*
X9340000Y7700000D02*
X9387500Y7747500D01*
X9180000Y7700000D02*
X9340000D01*
X9590000Y7445000D02*
Y7735000D01*
X9640000Y7445000D02*
Y7665000D01*
X9757500Y7782500D02*
Y7922500D01*
X9640000Y7665000D02*
X9757500Y7782500D01*
X9737500Y7942500D02*
X9757500Y7922500D01*
X9732500Y7942500D02*
X9737500D01*
X9715000Y7960000D02*
X9732500Y7942500D01*
X10029105Y7380000D02*
Y7404105D01*
X9263179Y6980000D02*
X9325000D01*
X9230000Y7380000D02*
X9325000D01*
X9262919Y6979740D02*
X9263179Y6980000D01*
X9715000Y7960000D02*
Y7965000D01*
Y7965000D02*
Y8220000D01*
X10574500Y8178500D02*
Y8408000D01*
X10573000Y8177000D02*
X10574500Y8178500D01*
X9831497Y8127329D02*
X9833750Y8125076D01*
Y7966250D02*
Y8125076D01*
Y7966250D02*
X9835000Y7965000D01*
X10382500Y7675000D02*
X10573000Y7865500D01*
Y8050000D01*
X10349855Y7839855D02*
X10446000Y7936000D01*
Y8050000D01*
X10073278Y7675000D02*
X10382500D01*
X10012355Y7839855D02*
X10349855D01*
X9840000Y7667500D02*
X10012355Y7839855D01*
X10574500Y8408000D02*
X10576000Y8409500D01*
X10451000D02*
X10576000D01*
X10005000Y7280000D02*
X10270000D01*
X10700000Y7710000D02*
Y8050000D01*
X10270000Y7280000D02*
X10700000Y7710000D01*
X9250001Y7030000D02*
X9325000D01*
X9019471Y7050000D02*
X9049471Y7080000D01*
X9010000Y7050000D02*
X9019471D01*
X9049471Y7080000D02*
X9325000D01*
X11250000Y5900000D02*
Y6050000D01*
X9587500Y7737500D02*
X9590000Y7735000D01*
X9660000Y8275000D02*
X9715000Y8220000D01*
X9280000Y8275000D02*
X9660000D01*
X9350029Y8225000D02*
X9445029Y8130000D01*
X9280000Y8225000D02*
X9350029D01*
X9445029Y8130000D02*
X9612500D01*
X8711155Y7701877D02*
Y7846029D01*
X8785847Y7920721D01*
X8845721D01*
X8885000Y7960000D01*
Y8025000D01*
X10247500Y6727500D02*
X10250000Y6725000D01*
X10245000Y6880000D02*
X10247500Y6877500D01*
Y6727500D02*
Y6877500D01*
X9770000Y7692500D02*
X9835000Y7757500D01*
X9770000Y7600000D02*
Y7692500D01*
X9690000Y7520000D02*
X9770000Y7600000D01*
X9690000Y7445000D02*
Y7520000D01*
X9835000Y7757500D02*
Y7965000D01*
X9840000Y7445000D02*
Y7667500D01*
X9940000Y7445000D02*
Y7541722D01*
X10073278Y7675000D01*
X10029105Y7404105D02*
X10070000Y7445000D01*
X10005000Y7380000D02*
X10029105D01*
X9537500Y5665000D02*
Y6253894D01*
X9590000Y6306394D02*
Y6765000D01*
X9537500Y6253894D02*
X9590000Y6306394D01*
X9412500Y6274635D02*
X9540000Y6402135D01*
Y6765000D01*
X9412500Y5665000D02*
Y6274635D01*
X9490000Y6553712D02*
Y6765000D01*
X9287500Y5665000D02*
Y6351212D01*
X9490000Y6553712D01*
X9162500Y6400000D02*
X9440000Y6677500D01*
Y6765000D01*
X9162500Y5665000D02*
Y6400000D01*
X9890000Y6710000D02*
Y6765000D01*
Y6710000D02*
X9925000Y6675000D01*
X9840000Y6687500D02*
Y6765000D01*
X10062500Y6880000D02*
X10062500Y6880000D01*
X10005000Y6880000D02*
X10062500D01*
X10005000Y7330000D02*
X10055000D01*
D35*
X9230000Y7380000D02*
Y7455000D01*
X10262750Y8409750D02*
X10350750D01*
X10262500Y8410000D02*
X10262750Y8409750D01*
X10350750D02*
X10351000Y8409500D01*
X9940000Y6742500D02*
Y6765000D01*
Y6742500D02*
X10032500Y6649999D01*
Y6625000D02*
Y6649999D01*
Y6625000D02*
X10047500Y6610000D01*
X9432500Y7675000D02*
X9436250Y7671250D01*
X9440000Y7445000D02*
Y7570000D01*
X9436250Y7573750D02*
X9440000Y7570000D01*
X9125000Y7755000D02*
X9320325D01*
X9530325Y7965000D02*
X9615000D01*
X9320325Y7755000D02*
X9530325Y7965000D01*
X9065000Y7695000D02*
X9125000Y7755000D01*
X9147500Y7822500D02*
X9150000Y7820000D01*
X9207500D01*
X9270000D02*
X9402500Y7952500D01*
X9207500Y7820000D02*
X9270000D01*
X9375000Y8067500D02*
X9392500D01*
X9367500Y8075000D02*
X9375000Y8067500D01*
X9392500D02*
X9407500Y8052500D01*
X9280000Y8075000D02*
X9367500D01*
X9402500Y7952500D02*
X9407500D01*
X9672500Y7835000D02*
X9675000Y7832500D01*
X9587500Y7837500D02*
X9590000Y7835000D01*
X9672500D01*
X9207500Y8350000D02*
X9207500Y8350000D01*
X8727500Y8325000D02*
X8772500D01*
X8795000Y8302500D01*
X8725000Y8327500D02*
X8727500Y8325000D01*
X8820000Y8225000D02*
X8885000D01*
X9130000Y7380000D02*
X9230000D01*
X9132500Y6907500D02*
X9147500Y6922500D01*
X9125000Y7380000D02*
X9130000D01*
X8795000Y8250000D02*
Y8302500D01*
Y8250000D02*
X8820000Y8225000D01*
X9205679Y6922500D02*
X9262919Y6979740D01*
X9147500Y6922500D02*
X9205679D01*
X9660000Y5667500D02*
X9662500Y5665000D01*
X9207500Y7820000D02*
X9207500Y7820000D01*
X9207500Y7820000D02*
Y7950000D01*
X10995000Y7362500D02*
X11274000D01*
X10870000Y7200000D02*
X10971883D01*
X10986882Y7215000D01*
X10995000D01*
X10437350Y8185650D02*
Y8265150D01*
Y8185650D02*
X10446000Y8177000D01*
X10366000Y8336500D02*
Y8394500D01*
X10351000Y8409500D02*
X10366000Y8394500D01*
Y8336500D02*
X10437350Y8265150D01*
X8955000Y7695000D02*
X9065000D01*
X10130000Y7350000D02*
X10132500Y7352500D01*
X10150000Y6725000D02*
X10151250Y6723750D01*
X9947500Y6610000D02*
X9948750Y6608750D01*
X9680000Y6607500D02*
X9680000Y6607500D01*
X9250000Y7030000D02*
X9250001Y7030000D01*
X8725000Y8017500D02*
X8737500Y8030000D01*
X8723750Y8016250D02*
X8725000Y8017500D01*
X8722500D02*
X8723750Y8016250D01*
X9132760Y7007240D02*
X9148020Y7022500D01*
X9172834Y7030000D02*
X9250000D01*
X9165334Y7022500D02*
X9172834Y7030000D01*
X9148020Y7022500D02*
X9165334D01*
X8830000Y6555000D02*
X8835000Y6560000D01*
X8595000Y6740000D02*
X8600000Y6745000D01*
X8490000Y6900000D02*
X8492500Y6902500D01*
X8577500D02*
X8580000Y6905000D01*
X9057500Y7825000D02*
X9060000Y7822500D01*
X11110000Y5805000D02*
X11115000Y5800000D01*
X11250000D01*
X8730000Y8227500D02*
X8782500Y8175000D01*
X8885000D01*
X8725000Y8227500D02*
X8730000D01*
X8725000Y8117500D02*
X8732500Y8125000D01*
X8885000D01*
X8737500Y8030000D02*
X8795000D01*
X8840000Y8075000D02*
X8885000D01*
X8795000Y8030000D02*
X8840000Y8075000D01*
X8725000Y8117500D02*
X8727500Y8115000D01*
X10070000Y7445000D02*
X10125000D01*
X10092426Y7330000D02*
X10097426Y7335000D01*
X10115000D01*
X10055000Y7330000D02*
X10092426D01*
X9830000Y6607500D02*
X9840000Y6617500D01*
Y6687500D01*
X9932500Y6625000D02*
Y6667500D01*
Y6625000D02*
X9947500Y6610000D01*
X9925000Y6675000D02*
X9932500Y6667500D01*
X10145000Y6880000D02*
X10145000Y6880000D01*
X10062500Y6880000D02*
X10145000D01*
X10115000Y7335000D02*
X10130000Y7350000D01*
X10125000Y7445000D02*
X10130000Y7450000D01*
D36*
X9436250Y7573750D02*
Y7671250D01*
X9060000Y7822500D02*
X9147500D01*
X10047500Y6605000D02*
X10065000Y6587500D01*
Y6407500D02*
Y6587500D01*
X10047500Y6605000D02*
Y6610000D01*
X9207500Y8350000D02*
Y8455000D01*
X8555000Y8325000D02*
X8722500D01*
X8620000Y8230000D02*
X8621250Y8228750D01*
X8723750D02*
X8725000Y8227500D01*
X8621250Y8228750D02*
X8723750D01*
X8721250Y8018750D02*
X8722500Y8017500D01*
X8621250Y8018750D02*
X8721250D01*
X8620000Y8020000D02*
X8621250Y8018750D01*
X8822500Y7405000D02*
X8980000D01*
X9100000D02*
X9125000Y7380000D01*
X9037500Y5512500D02*
Y5665000D01*
X9132500Y6560000D02*
Y6907500D01*
X8980000Y7405000D02*
X9100000D01*
X9010000Y6437500D02*
X9132500Y6560000D01*
X9037500Y5665000D02*
Y5835000D01*
X8985000Y5887500D02*
X9037500Y5835000D01*
Y5512500D02*
X9062500Y5487500D01*
X9662500Y5670000D02*
Y5810000D01*
X9660000Y5667500D02*
X9662500Y5670000D01*
X10700000Y8177000D02*
Y8380500D01*
X10676000Y8404500D02*
X10700000Y8380500D01*
X10676000Y8409500D02*
Y8579000D01*
Y8404500D02*
Y8409500D01*
X9935000Y8100000D02*
X9935000Y8100000D01*
Y7965000D02*
Y8100000D01*
X10670000Y8585000D02*
X10676000Y8579000D01*
X8956250Y7696250D02*
Y7823750D01*
X8957500Y7825000D01*
X8955000Y7695000D02*
X8956250Y7696250D01*
X8948087Y6558087D02*
X8950000Y6560000D01*
X8836913Y6558087D02*
X8948087D01*
X8835000Y6560000D02*
X8836913Y6558087D01*
X9947500Y6607500D02*
X9948750Y6608750D01*
X9947500Y6517500D02*
Y6607500D01*
X10624300Y6422500D02*
X10625550Y6421250D01*
X11008000Y6617000D02*
X11008500Y6617500D01*
X10858000Y6617000D02*
X10858500Y6617500D01*
X11247500Y6242500D02*
X11248750Y6241250D01*
Y6151250D02*
X11250000Y6150000D01*
X11248750Y6151250D02*
Y6241250D01*
X10136250Y7348750D02*
X10226250D01*
X10132500Y7352500D02*
X10136250Y7348750D01*
X10226250D02*
X10227500Y7347500D01*
X10150000Y6627500D02*
Y6722500D01*
X10151250Y6723750D01*
X9678750Y6606250D02*
X9680000Y6607500D01*
X9677500Y6497500D02*
X9678750Y6498750D01*
Y6606250D01*
X8870000Y7257500D02*
X8872706D01*
X8978750Y7253750D02*
X8995000Y7270000D01*
X8876456Y7253750D02*
X8978750D01*
X8872706Y7257500D02*
X8876456Y7253750D01*
X9011913Y6901913D02*
Y6931913D01*
X9082500Y7002500D02*
X9127500D01*
X9011913Y6931913D02*
X9082500Y7002500D01*
X9127500D02*
X9132500Y7007500D01*
X8480000Y6740000D02*
X8595000D01*
X8492500Y6902500D02*
X8577500D01*
X8907500Y6900000D02*
X9010000D01*
X8902500Y6905000D02*
X8907500Y6900000D01*
X9010000D02*
X9011913Y6901913D01*
X8957500Y7825000D02*
X8957500Y7825000D01*
X8957500Y7825000D02*
Y7950000D01*
X9034290Y7280000D02*
X9130000D01*
X9024290Y7270000D02*
X9034290Y7280000D01*
X8995000Y7270000D02*
X9024290D01*
D37*
X10065000Y6312500D02*
Y6407500D01*
X8442500Y8210000D02*
Y8212500D01*
X8555000Y8325000D01*
X8682500Y8452500D01*
X8650000Y7407500D02*
X8652500Y7405000D01*
X8822500D01*
X8760000Y5942500D02*
X8930000D01*
X8985000Y5887500D01*
X9062500Y5487500D02*
X9167500Y5382500D01*
X8940000Y6367500D02*
X9010000Y6437500D01*
X8940000Y6367500D02*
X8940000D01*
X10822500Y7560000D02*
X10897500Y7635000D01*
X10907500D01*
X9935000Y8100000D02*
Y8220000D01*
D38*
X10065000Y5377500D02*
Y6312500D01*
Y5377500D02*
X10850000D01*
X11025000Y5552500D01*
Y5860700D01*
X8292500Y8060000D02*
X8442500Y8210000D01*
X8682500Y8452500D02*
X8815000Y8585000D01*
X8760000Y6187500D02*
X8940000Y6367500D01*
X8522500Y7407500D02*
X8650000D01*
X8760000Y5942500D02*
Y6187500D01*
X9167500Y5382500D02*
X9175000Y5375000D01*
X8417500Y5942500D02*
X8760000D01*
X8292500Y7407500D02*
Y8060000D01*
X8275000Y7390000D02*
X8292500Y7407500D01*
X9175000Y5375000D02*
X9682500D01*
X8275000Y6085000D02*
Y7390000D01*
X8292500Y7407500D02*
X8522500D01*
X8275000Y6085000D02*
X8417500Y5942500D01*
X10907500Y7635000D02*
X11097500Y7825000D01*
Y8385000D01*
X10897500Y8585000D02*
X11097500Y8385000D01*
X10670000Y8585000D02*
X10897500D01*
X8815000D02*
X9935000D01*
X10670000D01*
X9935000Y8220000D02*
Y8585000D01*
D39*
X10747500Y7202500D02*
X10750000Y7205000D01*
X10630000Y7200000D02*
X10632500Y7202500D01*
X10747500D01*
X10630000Y7105000D02*
X10870000D01*
X10998459D01*
X10556992D02*
X10630000D01*
X10983500Y6892500D02*
Y6956500D01*
X10750000Y7007500D02*
X10932500D01*
X10983500Y6956500D01*
X10630000Y7295000D02*
X10870000D01*
X10998459Y7105000D02*
X11079621Y7186163D01*
X11180000Y7232500D02*
X11274000D01*
X10870000Y7295000D02*
X11117500D01*
X11180000Y7232500D01*
X11079621Y7186163D02*
X11182156D01*
X11191327Y7176991D02*
X11264509D01*
X11182156Y7186163D02*
X11191327Y7176991D01*
X11264509D02*
X11274000Y7167500D01*
X10486992Y7225000D02*
X10556992Y7295000D01*
X10040000Y7225000D02*
X10486992D01*
X10486992Y7175000D02*
X10556992Y7105000D01*
X10040000Y7175000D02*
X10486992D01*
X10556992Y7295000D02*
X10630000D01*
D40*
X10685000Y7560000D02*
X10822500D01*
X10135000Y7450000D02*
X10242500Y7557500D01*
X10372500D01*
X10130000Y7450000D02*
X10135000D01*
D41*
X8902500Y7087501D02*
X8944999Y7130000D01*
X8902500Y7030000D02*
Y7087501D01*
X8944999Y7130000D02*
X9325000D01*
X8802500Y6772500D02*
Y7030000D01*
Y6772500D02*
X8830000Y6745000D01*
X8680000Y7080000D02*
X8780000Y7180000D01*
X9325000D01*
X8715903Y6678040D02*
Y6799096D01*
X8655000Y6600000D02*
Y6617137D01*
X8610000Y6555000D02*
X8655000Y6600000D01*
Y6617137D02*
X8715903Y6678040D01*
X8680000Y6835000D02*
X8715903Y6799096D01*
X8680000Y6835000D02*
Y6905000D01*
X8600000Y6555000D02*
X8610000D01*
X8680000Y6905000D02*
Y7080000D01*
D42*
X8400000Y8500000D02*
D03*
X11400000D02*
D03*
Y5500000D02*
D03*
X8400000D02*
D03*
D43*
X10319000Y8215100D02*
D03*
Y8011900D02*
D03*
X10827000Y8113500D02*
D03*
D44*
X10262500Y8410000D02*
D03*
X9432500Y7675000D02*
D03*
X9150000Y7820000D02*
D03*
X9675000Y7832500D02*
D03*
X9207500Y8455000D02*
D03*
X8620000Y8230000D02*
D03*
Y8020000D02*
D03*
X10750000Y7205000D02*
D03*
X9662500Y5810000D02*
D03*
X10750000Y7007500D02*
D03*
X10995000Y7362500D02*
D03*
Y7215000D02*
D03*
X10685000Y7560000D02*
D03*
X10372500Y7557500D02*
D03*
X8955000Y7695000D02*
D03*
X8522500Y7407500D02*
D03*
X8950000Y6560000D02*
D03*
X9947500Y6517500D02*
D03*
X9682500Y5375000D02*
D03*
X10065000Y5377500D02*
D03*
X10852500Y6510000D02*
D03*
X11022500Y6232500D02*
D03*
X11001885Y6513925D02*
D03*
X10767500Y6405000D02*
D03*
X11247500Y6242500D02*
D03*
X10227500Y7347500D02*
D03*
X10150000Y6627500D02*
D03*
X9677500Y6497500D02*
D03*
X8870000Y7257500D02*
D03*
X9010000Y7050000D02*
D03*
X8480000Y6740000D02*
D03*
X8490000Y6900000D02*
D03*
X9010000D02*
D03*
D45*
X9445000Y7325000D02*
D03*
X9555000D02*
D03*
X9665000D02*
D03*
X9775000D02*
D03*
X9885000D02*
D03*
X9445000Y7215000D02*
D03*
X9555000D02*
D03*
X9665000D02*
D03*
X9775000D02*
D03*
X9885000D02*
D03*
X9445000Y7105000D02*
D03*
X9555000D02*
D03*
X9665000D02*
D03*
X9775000D02*
D03*
X9885000D02*
D03*
X9445000Y6995000D02*
D03*
X9555000D02*
D03*
X9665000D02*
D03*
X9775000D02*
D03*
X9885000D02*
D03*
X9445000Y6885000D02*
D03*
X9555000D02*
D03*
X9665000D02*
D03*
X9775000D02*
D03*
X9885000D02*
D03*
X9027500Y8205000D02*
D03*
Y8095000D02*
D03*
X9137500D02*
D03*
Y8205000D02*
D03*
D46*
X10574500Y8293250D02*
D03*
X9831497Y8127329D02*
D03*
X9612500Y8130000D02*
D03*
%TF.MD5,7da30430c371c42017efe556212bff83*%
M02*
