%TF.GenerationSoftware,Altium Limited,Altium Designer,24.6.1 (21)*%
G04 Layer_Color=0*
%FSLAX45Y45*%
%MOMM*%
%TF.SameCoordinates,998BC942-C911-4A9E-BC0A-61954E215518*%
%TF.FilePolarity,Positive*%
%TF.FileFunction,Plated,1,4,PTH,Drill*%
%TF.Part,Single*%
G01*
G75*
%TA.AperFunction,OtherDrill,Pad Free-1 (84mm,85mm)*%
%ADD76C,3.20000*%
%TA.AperFunction,OtherDrill,Pad Free-1 (114mm,85mm)*%
%ADD77C,3.20000*%
%TA.AperFunction,OtherDrill,Pad Free-1 (114mm,55mm)*%
%ADD78C,3.20000*%
%TA.AperFunction,OtherDrill,Pad Free-1 (84mm,55mm)*%
%ADD79C,3.20000*%
%TA.AperFunction,ViaDrill,NotFilled*%
%ADD80C,0.25000*%
%ADD81C,0.20000*%
%ADD82C,0.30000*%
D76*
X8400000Y8500000D02*
D03*
D77*
X11400000D02*
D03*
D78*
Y5500000D02*
D03*
D79*
X8400000D02*
D03*
D80*
X10262500Y8410000D02*
D03*
X9432500Y7675000D02*
D03*
X9150000Y7820000D02*
D03*
X9675000Y7832500D02*
D03*
X9207500Y8455000D02*
D03*
X8620000Y8230000D02*
D03*
Y8020000D02*
D03*
X10750000Y7205000D02*
D03*
X9662500Y5810000D02*
D03*
X10750000Y7007500D02*
D03*
X10995000Y7362500D02*
D03*
Y7215000D02*
D03*
X10685000Y7560000D02*
D03*
X10372500Y7557500D02*
D03*
X8955000Y7695000D02*
D03*
X8522500Y7407500D02*
D03*
X8950000Y6560000D02*
D03*
X9947500Y6517500D02*
D03*
X9682500Y5375000D02*
D03*
X10065000Y5377500D02*
D03*
X10852500Y6510000D02*
D03*
X11022500Y6232500D02*
D03*
X11001885Y6513925D02*
D03*
X10767500Y6405000D02*
D03*
X11247500Y6242500D02*
D03*
X10227500Y7347500D02*
D03*
X10150000Y6627500D02*
D03*
X9677500Y6497500D02*
D03*
X8870000Y7257500D02*
D03*
X9010000Y7050000D02*
D03*
X8480000Y6740000D02*
D03*
X8490000Y6900000D02*
D03*
X9010000D02*
D03*
D81*
X9445000Y7325000D02*
D03*
X9555000D02*
D03*
X9665000D02*
D03*
X9775000D02*
D03*
X9885000D02*
D03*
X9445000Y7215000D02*
D03*
X9555000D02*
D03*
X9665000D02*
D03*
X9775000D02*
D03*
X9885000D02*
D03*
X9445000Y7105000D02*
D03*
X9555000D02*
D03*
X9665000D02*
D03*
X9775000D02*
D03*
X9885000D02*
D03*
X9445000Y6995000D02*
D03*
X9555000D02*
D03*
X9665000D02*
D03*
X9775000D02*
D03*
X9885000D02*
D03*
X9445000Y6885000D02*
D03*
X9555000D02*
D03*
X9665000D02*
D03*
X9775000D02*
D03*
X9885000D02*
D03*
X9027500Y8205000D02*
D03*
Y8095000D02*
D03*
X9137500D02*
D03*
Y8205000D02*
D03*
D82*
X10574500Y8293250D02*
D03*
X9831497Y8127329D02*
D03*
X9612500Y8130000D02*
D03*
%TF.MD5,c1a11e18eb294858c9476a29a98c5e30*%
M02*
