%TF.GenerationSoftware,Altium Limited,Altium Designer,24.6.1 (21)*%
G04 Layer_Color=8388736*
%FSLAX45Y45*%
%MOMM*%
%TF.SameCoordinates,998BC942-C911-4A9E-BC0A-61954E215518*%
%TF.FilePolarity,Negative*%
%TF.FileFunction,Soldermask,Top*%
%TF.Part,Single*%
G01*
G75*
%TA.AperFunction,SMDPad,CuDef*%
%ADD14R,3.50000X1.25000*%
%ADD15R,1.25000X1.25000*%
%TA.AperFunction,ConnectorPad*%
%ADD24R,1.30000X1.65000*%
%ADD25R,1.90000X1.80000*%
%ADD26R,1.90000X1.00000*%
%ADD27R,1.55000X1.42500*%
%ADD28R,1.38000X0.45000*%
%TA.AperFunction,SMDPad,CuDef*%
G04:AMPARAMS|DCode=52|XSize=0.8032mm|YSize=0.9032mm|CornerRadius=0.1766mm|HoleSize=0mm|Usage=FLASHONLY|Rotation=90.000|XOffset=0mm|YOffset=0mm|HoleType=Round|Shape=RoundedRectangle|*
%AMROUNDEDRECTD52*
21,1,0.80320,0.55000,0,0,90.0*
21,1,0.45000,0.90320,0,0,90.0*
1,1,0.35320,0.27500,0.22500*
1,1,0.35320,0.27500,-0.22500*
1,1,0.35320,-0.27500,-0.22500*
1,1,0.35320,-0.27500,0.22500*
%
%ADD52ROUNDEDRECTD52*%
%ADD53O,1.00320X0.45320*%
%ADD54O,0.45320X1.00320*%
%ADD55R,5.80320X5.80320*%
G04:AMPARAMS|DCode=56|XSize=1.6032mm|YSize=1.9032mm|CornerRadius=0.2766mm|HoleSize=0mm|Usage=FLASHONLY|Rotation=270.000|XOffset=0mm|YOffset=0mm|HoleType=Round|Shape=RoundedRectangle|*
%AMROUNDEDRECTD56*
21,1,1.60320,1.35000,0,0,270.0*
21,1,1.05000,1.90320,0,0,270.0*
1,1,0.55320,-0.67500,-0.52500*
1,1,0.55320,-0.67500,0.52500*
1,1,0.55320,0.67500,0.52500*
1,1,0.55320,0.67500,-0.52500*
%
%ADD56ROUNDEDRECTD56*%
%ADD57R,0.55320X1.00320*%
%ADD58R,1.05320X0.55320*%
%ADD59R,2.80320X2.90320*%
G04:AMPARAMS|DCode=60|XSize=1.0032mm|YSize=1.2032mm|CornerRadius=0.2016mm|HoleSize=0mm|Usage=FLASHONLY|Rotation=0.000|XOffset=0mm|YOffset=0mm|HoleType=Round|Shape=RoundedRectangle|*
%AMROUNDEDRECTD60*
21,1,1.00320,0.80000,0,0,0.0*
21,1,0.60000,1.20320,0,0,0.0*
1,1,0.40320,0.30000,-0.40000*
1,1,0.40320,-0.30000,-0.40000*
1,1,0.40320,-0.30000,0.40000*
1,1,0.40320,0.30000,0.40000*
%
%ADD60ROUNDEDRECTD60*%
G04:AMPARAMS|DCode=61|XSize=1.5032mm|YSize=1.3032mm|CornerRadius=0.1566mm|HoleSize=0mm|Usage=FLASHONLY|Rotation=0.000|XOffset=0mm|YOffset=0mm|HoleType=Round|Shape=RoundedRectangle|*
%AMROUNDEDRECTD61*
21,1,1.50320,0.99000,0,0,0.0*
21,1,1.19000,1.30320,0,0,0.0*
1,1,0.31320,0.59500,-0.49500*
1,1,0.31320,-0.59500,-0.49500*
1,1,0.31320,-0.59500,0.49500*
1,1,0.31320,0.59500,0.49500*
%
%ADD61ROUNDEDRECTD61*%
G04:AMPARAMS|DCode=62|XSize=0.8032mm|YSize=0.9032mm|CornerRadius=0.1766mm|HoleSize=0mm|Usage=FLASHONLY|Rotation=180.000|XOffset=0mm|YOffset=0mm|HoleType=Round|Shape=RoundedRectangle|*
%AMROUNDEDRECTD62*
21,1,0.80320,0.55000,0,0,180.0*
21,1,0.45000,0.90320,0,0,180.0*
1,1,0.35320,-0.22500,0.27500*
1,1,0.35320,0.22500,0.27500*
1,1,0.35320,0.22500,-0.27500*
1,1,0.35320,-0.22500,-0.27500*
%
%ADD62ROUNDEDRECTD62*%
G04:AMPARAMS|DCode=63|XSize=1.0032mm|YSize=1.2032mm|CornerRadius=0.2016mm|HoleSize=0mm|Usage=FLASHONLY|Rotation=90.000|XOffset=0mm|YOffset=0mm|HoleType=Round|Shape=RoundedRectangle|*
%AMROUNDEDRECTD63*
21,1,1.00320,0.80000,0,0,90.0*
21,1,0.60000,1.20320,0,0,90.0*
1,1,0.40320,0.40000,0.30000*
1,1,0.40320,0.40000,-0.30000*
1,1,0.40320,-0.40000,-0.30000*
1,1,0.40320,-0.40000,0.30000*
%
%ADD63ROUNDEDRECTD63*%
G04:AMPARAMS|DCode=64|XSize=0.8032mm|YSize=1.4032mm|CornerRadius=0.1766mm|HoleSize=0mm|Usage=FLASHONLY|Rotation=90.000|XOffset=0mm|YOffset=0mm|HoleType=Round|Shape=RoundedRectangle|*
%AMROUNDEDRECTD64*
21,1,0.80320,1.05000,0,0,90.0*
21,1,0.45000,1.40320,0,0,90.0*
1,1,0.35320,0.52500,0.22500*
1,1,0.35320,0.52500,-0.22500*
1,1,0.35320,-0.52500,-0.22500*
1,1,0.35320,-0.52500,0.22500*
%
%ADD64ROUNDEDRECTD64*%
%ADD65R,1.20320X3.10320*%
%ADD66R,0.85320X1.90320*%
%TA.AperFunction,BGAPad,CuDef*%
%ADD67C,1.06620*%
%TA.AperFunction,SMDPad,CuDef*%
G04:AMPARAMS|DCode=68|XSize=1.6032mm|YSize=1.9032mm|CornerRadius=0.2766mm|HoleSize=0mm|Usage=FLASHONLY|Rotation=180.000|XOffset=0mm|YOffset=0mm|HoleType=Round|Shape=RoundedRectangle|*
%AMROUNDEDRECTD68*
21,1,1.60320,1.35000,0,0,180.0*
21,1,1.05000,1.90320,0,0,180.0*
1,1,0.55320,-0.52500,0.67500*
1,1,0.55320,0.52500,0.67500*
1,1,0.55320,0.52500,-0.67500*
1,1,0.55320,-0.52500,-0.67500*
%
%ADD68ROUNDEDRECTD68*%
%TA.AperFunction,ViaPad*%
%ADD69C,3.40320*%
%TA.AperFunction,ComponentPad*%
%ADD70C,1.27020*%
%TA.AperFunction,ViaPad*%
%ADD71C,0.80320*%
%ADD72C,0.70320*%
%ADD73C,0.90320*%
D14*
X10525000Y5570500D02*
D03*
D15*
X10296000Y6229500D02*
D03*
X10525000D02*
D03*
X10754000D02*
D03*
D24*
X11540000Y6895000D02*
D03*
Y7570000D02*
D03*
D25*
Y7117500D02*
D03*
D26*
Y7387500D02*
D03*
D27*
X11282500Y6983750D02*
D03*
Y7481250D02*
D03*
D28*
X11274000Y7102500D02*
D03*
Y7167500D02*
D03*
Y7232500D02*
D03*
Y7297500D02*
D03*
Y7362500D02*
D03*
D52*
X9407500Y8052500D02*
D03*
Y7952500D02*
D03*
X8725000Y8227500D02*
D03*
Y8327500D02*
D03*
Y8017500D02*
D03*
Y8117500D02*
D03*
X9130000Y7280000D02*
D03*
Y7380000D02*
D03*
X9132500Y7007500D02*
D03*
Y6907500D02*
D03*
X11250000Y5900000D02*
D03*
Y5800000D02*
D03*
Y6150000D02*
D03*
Y6050000D02*
D03*
X9587500Y7837500D02*
D03*
Y7737500D02*
D03*
X10130000Y7450000D02*
D03*
Y7350000D02*
D03*
D53*
X9325000Y7380000D02*
D03*
Y7330000D02*
D03*
Y7280000D02*
D03*
Y7230000D02*
D03*
Y7180000D02*
D03*
Y7130000D02*
D03*
Y7080000D02*
D03*
Y7030000D02*
D03*
Y6980000D02*
D03*
Y6930000D02*
D03*
Y6880000D02*
D03*
Y6830000D02*
D03*
X10005000D02*
D03*
Y6880000D02*
D03*
Y6930000D02*
D03*
Y6980000D02*
D03*
Y7030000D02*
D03*
Y7080000D02*
D03*
Y7130000D02*
D03*
Y7180000D02*
D03*
Y7230000D02*
D03*
Y7280000D02*
D03*
Y7330000D02*
D03*
Y7380000D02*
D03*
D54*
X9390000Y6765000D02*
D03*
X9440000D02*
D03*
X9490000D02*
D03*
X9540000D02*
D03*
X9590000D02*
D03*
X9640000D02*
D03*
X9690000D02*
D03*
X9740000D02*
D03*
X9790000D02*
D03*
X9840000D02*
D03*
X9890000D02*
D03*
X9940000D02*
D03*
Y7445000D02*
D03*
X9890000D02*
D03*
X9840000D02*
D03*
X9790000D02*
D03*
X9740000D02*
D03*
X9690000D02*
D03*
X9640000D02*
D03*
X9590000D02*
D03*
X9540000D02*
D03*
X9490000D02*
D03*
X9440000D02*
D03*
X9390000D02*
D03*
D55*
X9665000Y7105000D02*
D03*
D56*
X11025000Y6089300D02*
D03*
Y5860700D02*
D03*
D57*
X9207500Y8350000D02*
D03*
X9157500D02*
D03*
X9107500D02*
D03*
X9057500D02*
D03*
X9007500D02*
D03*
X8957500D02*
D03*
X9207500Y7950000D02*
D03*
X9157500D02*
D03*
X9107500D02*
D03*
X9057500D02*
D03*
X9007500D02*
D03*
X8957500D02*
D03*
D58*
X8885000Y8275000D02*
D03*
Y8225000D02*
D03*
Y8175000D02*
D03*
Y8125000D02*
D03*
Y8075000D02*
D03*
Y8025000D02*
D03*
X9280000Y8275000D02*
D03*
Y8225000D02*
D03*
Y8175000D02*
D03*
Y8125000D02*
D03*
Y8075000D02*
D03*
Y8025000D02*
D03*
D59*
X9082500Y8150000D02*
D03*
D60*
X9830000Y6607500D02*
D03*
X9680000D02*
D03*
D61*
X8600000Y6745000D02*
D03*
Y6555000D02*
D03*
X8830000Y6745000D02*
D03*
Y6555000D02*
D03*
D62*
X8902500Y7030000D02*
D03*
X8802500D02*
D03*
X8580000Y6905000D02*
D03*
X8680000D02*
D03*
X8902500D02*
D03*
X8802500D02*
D03*
X9440000Y7570000D02*
D03*
X9340000D02*
D03*
X8957500Y7825000D02*
D03*
X9057500D02*
D03*
X10351000Y8409500D02*
D03*
X10451000D02*
D03*
X10576000D02*
D03*
X10676000D02*
D03*
X10883500Y6892500D02*
D03*
X10983500D02*
D03*
X9715000Y7965000D02*
D03*
X9615000D02*
D03*
X9835000D02*
D03*
X9935000D02*
D03*
X10150000Y6725000D02*
D03*
X10250000D02*
D03*
X10145000Y6880000D02*
D03*
X10245000D02*
D03*
X10047500Y6610000D02*
D03*
X9947500D02*
D03*
D63*
X8980000Y7405000D02*
D03*
Y7255000D02*
D03*
X10858500Y6767500D02*
D03*
Y6617500D02*
D03*
X11008500Y6767500D02*
D03*
Y6617500D02*
D03*
D64*
X10630000Y7105000D02*
D03*
Y7200000D02*
D03*
Y7295000D02*
D03*
X10870000D02*
D03*
Y7200000D02*
D03*
Y7105000D02*
D03*
D65*
X9847500Y5385000D02*
D03*
X8852500D02*
D03*
D66*
X9662500Y5665000D02*
D03*
X9287500D02*
D03*
X9537500D02*
D03*
X9412500D02*
D03*
X9162500D02*
D03*
X9037500D02*
D03*
D67*
X10446000Y8050000D02*
D03*
X10573000D02*
D03*
X10700000D02*
D03*
X10446000Y8177000D02*
D03*
X10573000D02*
D03*
X10700000D02*
D03*
D68*
X10395700Y6422500D02*
D03*
X10624300D02*
D03*
D69*
X8400000Y8500000D02*
D03*
X11400000D02*
D03*
Y5500000D02*
D03*
X8400000D02*
D03*
D70*
X10319000Y8215100D02*
D03*
Y8011900D02*
D03*
X10827000Y8113500D02*
D03*
D71*
X10262500Y8410000D02*
D03*
X9432500Y7675000D02*
D03*
X9150000Y7820000D02*
D03*
X9675000Y7832500D02*
D03*
X9207500Y8455000D02*
D03*
X8620000Y8230000D02*
D03*
Y8020000D02*
D03*
X10750000Y7205000D02*
D03*
X9662500Y5810000D02*
D03*
X10750000Y7007500D02*
D03*
X10995000Y7362500D02*
D03*
Y7215000D02*
D03*
X10685000Y7560000D02*
D03*
X10372500Y7557500D02*
D03*
X8955000Y7695000D02*
D03*
X8522500Y7407500D02*
D03*
X8950000Y6560000D02*
D03*
X9947500Y6517500D02*
D03*
X9682500Y5375000D02*
D03*
X10065000Y5377500D02*
D03*
X10852500Y6510000D02*
D03*
X11022500Y6232500D02*
D03*
X11001885Y6513925D02*
D03*
X10767500Y6405000D02*
D03*
X11247500Y6242500D02*
D03*
X10227500Y7347500D02*
D03*
X10150000Y6627500D02*
D03*
X9677500Y6497500D02*
D03*
X8870000Y7257500D02*
D03*
X9010000Y7050000D02*
D03*
X8480000Y6740000D02*
D03*
X8490000Y6900000D02*
D03*
X9010000D02*
D03*
D72*
X9445000Y7325000D02*
D03*
X9555000D02*
D03*
X9665000D02*
D03*
X9775000D02*
D03*
X9885000D02*
D03*
X9445000Y7215000D02*
D03*
X9555000D02*
D03*
X9665000D02*
D03*
X9775000D02*
D03*
X9885000D02*
D03*
X9445000Y7105000D02*
D03*
X9555000D02*
D03*
X9665000D02*
D03*
X9775000D02*
D03*
X9885000D02*
D03*
X9445000Y6995000D02*
D03*
X9555000D02*
D03*
X9665000D02*
D03*
X9775000D02*
D03*
X9885000D02*
D03*
X9445000Y6885000D02*
D03*
X9555000D02*
D03*
X9665000D02*
D03*
X9775000D02*
D03*
X9885000D02*
D03*
X9027500Y8205000D02*
D03*
Y8095000D02*
D03*
X9137500D02*
D03*
Y8205000D02*
D03*
D73*
X10574500Y8293250D02*
D03*
X9831497Y8127329D02*
D03*
X9612500Y8130000D02*
D03*
%TF.MD5,08d6d1159fe557c0c5a271865122a97d*%
M02*
