%TF.GenerationSoftware,Altium Limited,Altium Designer,24.6.1 (21)*%
G04 Layer_Color=8421504*
%FSLAX45Y45*%
%MOMM*%
%TF.SameCoordinates,998BC942-C911-4A9E-BC0A-61954E215518*%
%TF.FilePolarity,Positive*%
%TF.FileFunction,Paste,Top*%
%TF.Part,Single*%
G01*
G75*
%TA.AperFunction,SMDPad,CuDef*%
G04:AMPARAMS|DCode=10|XSize=0.6mm|YSize=0.7mm|CornerRadius=0.075mm|HoleSize=0mm|Usage=FLASHONLY|Rotation=90.000|XOffset=0mm|YOffset=0mm|HoleType=Round|Shape=RoundedRectangle|*
%AMROUNDEDRECTD10*
21,1,0.60000,0.55000,0,0,90.0*
21,1,0.45000,0.70000,0,0,90.0*
1,1,0.15000,0.27500,0.22500*
1,1,0.15000,0.27500,-0.22500*
1,1,0.15000,-0.27500,-0.22500*
1,1,0.15000,-0.27500,0.22500*
%
%ADD10ROUNDEDRECTD10*%
%ADD11O,0.80000X0.25000*%
%ADD12O,0.25000X0.80000*%
%ADD13R,5.60000X5.60000*%
%ADD14R,3.50000X1.25000*%
%ADD15R,1.25000X1.25000*%
G04:AMPARAMS|DCode=16|XSize=1.4mm|YSize=1.7mm|CornerRadius=0.175mm|HoleSize=0mm|Usage=FLASHONLY|Rotation=270.000|XOffset=0mm|YOffset=0mm|HoleType=Round|Shape=RoundedRectangle|*
%AMROUNDEDRECTD16*
21,1,1.40000,1.35000,0,0,270.0*
21,1,1.05000,1.70000,0,0,270.0*
1,1,0.35000,-0.67500,-0.52500*
1,1,0.35000,-0.67500,0.52500*
1,1,0.35000,0.67500,0.52500*
1,1,0.35000,0.67500,-0.52500*
%
%ADD16ROUNDEDRECTD16*%
%ADD17R,0.35000X0.80000*%
%ADD18R,0.85000X0.35000*%
%ADD19R,2.60000X2.70000*%
G04:AMPARAMS|DCode=20|XSize=0.8mm|YSize=1mm|CornerRadius=0.1mm|HoleSize=0mm|Usage=FLASHONLY|Rotation=0.000|XOffset=0mm|YOffset=0mm|HoleType=Round|Shape=RoundedRectangle|*
%AMROUNDEDRECTD20*
21,1,0.80000,0.80000,0,0,0.0*
21,1,0.60000,1.00000,0,0,0.0*
1,1,0.20000,0.30000,-0.40000*
1,1,0.20000,-0.30000,-0.40000*
1,1,0.20000,-0.30000,0.40000*
1,1,0.20000,0.30000,0.40000*
%
%ADD20ROUNDEDRECTD20*%
G04:AMPARAMS|DCode=21|XSize=1.3mm|YSize=1.1mm|CornerRadius=0.055mm|HoleSize=0mm|Usage=FLASHONLY|Rotation=0.000|XOffset=0mm|YOffset=0mm|HoleType=Round|Shape=RoundedRectangle|*
%AMROUNDEDRECTD21*
21,1,1.30000,0.99000,0,0,0.0*
21,1,1.19000,1.10000,0,0,0.0*
1,1,0.11000,0.59500,-0.49500*
1,1,0.11000,-0.59500,-0.49500*
1,1,0.11000,-0.59500,0.49500*
1,1,0.11000,0.59500,0.49500*
%
%ADD21ROUNDEDRECTD21*%
G04:AMPARAMS|DCode=22|XSize=0.6mm|YSize=0.7mm|CornerRadius=0.075mm|HoleSize=0mm|Usage=FLASHONLY|Rotation=180.000|XOffset=0mm|YOffset=0mm|HoleType=Round|Shape=RoundedRectangle|*
%AMROUNDEDRECTD22*
21,1,0.60000,0.55000,0,0,180.0*
21,1,0.45000,0.70000,0,0,180.0*
1,1,0.15000,-0.22500,0.27500*
1,1,0.15000,0.22500,0.27500*
1,1,0.15000,0.22500,-0.27500*
1,1,0.15000,-0.22500,-0.27500*
%
%ADD22ROUNDEDRECTD22*%
G04:AMPARAMS|DCode=23|XSize=0.8mm|YSize=1mm|CornerRadius=0.1mm|HoleSize=0mm|Usage=FLASHONLY|Rotation=90.000|XOffset=0mm|YOffset=0mm|HoleType=Round|Shape=RoundedRectangle|*
%AMROUNDEDRECTD23*
21,1,0.80000,0.80000,0,0,90.0*
21,1,0.60000,1.00000,0,0,90.0*
1,1,0.20000,0.40000,0.30000*
1,1,0.20000,0.40000,-0.30000*
1,1,0.20000,-0.40000,-0.30000*
1,1,0.20000,-0.40000,0.30000*
%
%ADD23ROUNDEDRECTD23*%
%TA.AperFunction,ConnectorPad*%
%ADD24R,1.30000X1.65000*%
%ADD25R,1.90000X1.80000*%
%ADD26R,1.90000X1.00000*%
%ADD27R,1.55000X1.42500*%
%ADD28R,1.38000X0.45000*%
%TA.AperFunction,SMDPad,CuDef*%
G04:AMPARAMS|DCode=29|XSize=0.6mm|YSize=1.2mm|CornerRadius=0.075mm|HoleSize=0mm|Usage=FLASHONLY|Rotation=90.000|XOffset=0mm|YOffset=0mm|HoleType=Round|Shape=RoundedRectangle|*
%AMROUNDEDRECTD29*
21,1,0.60000,1.05000,0,0,90.0*
21,1,0.45000,1.20000,0,0,90.0*
1,1,0.15000,0.52500,0.22500*
1,1,0.15000,0.52500,-0.22500*
1,1,0.15000,-0.52500,-0.22500*
1,1,0.15000,-0.52500,0.22500*
%
%ADD29ROUNDEDRECTD29*%
%ADD30R,1.00000X2.90000*%
%ADD31R,0.65000X1.70000*%
G04:AMPARAMS|DCode=33|XSize=1.4mm|YSize=1.7mm|CornerRadius=0.175mm|HoleSize=0mm|Usage=FLASHONLY|Rotation=180.000|XOffset=0mm|YOffset=0mm|HoleType=Round|Shape=RoundedRectangle|*
%AMROUNDEDRECTD33*
21,1,1.40000,1.35000,0,0,180.0*
21,1,1.05000,1.70000,0,0,180.0*
1,1,0.35000,-0.52500,0.67500*
1,1,0.35000,0.52500,0.67500*
1,1,0.35000,0.52500,-0.67500*
1,1,0.35000,-0.52500,-0.67500*
%
%ADD33ROUNDEDRECTD33*%
D10*
X9407500Y8052500D02*
D03*
Y7952500D02*
D03*
X8725000Y8227500D02*
D03*
Y8327500D02*
D03*
Y8017500D02*
D03*
Y8117500D02*
D03*
X9130000Y7280000D02*
D03*
Y7380000D02*
D03*
X9132500Y7007500D02*
D03*
Y6907500D02*
D03*
X11250000Y5900000D02*
D03*
Y5800000D02*
D03*
Y6150000D02*
D03*
Y6050000D02*
D03*
X9587500Y7837500D02*
D03*
Y7737500D02*
D03*
X10130000Y7450000D02*
D03*
Y7350000D02*
D03*
D11*
X9325000Y7380000D02*
D03*
Y7330000D02*
D03*
Y7280000D02*
D03*
Y7230000D02*
D03*
Y7180000D02*
D03*
Y7130000D02*
D03*
Y7080000D02*
D03*
Y7030000D02*
D03*
Y6980000D02*
D03*
Y6930000D02*
D03*
Y6880000D02*
D03*
Y6830000D02*
D03*
X10005000D02*
D03*
Y6880000D02*
D03*
Y6930000D02*
D03*
Y6980000D02*
D03*
Y7030000D02*
D03*
Y7080000D02*
D03*
Y7130000D02*
D03*
Y7180000D02*
D03*
Y7230000D02*
D03*
Y7280000D02*
D03*
Y7330000D02*
D03*
Y7380000D02*
D03*
D12*
X9390000Y6765000D02*
D03*
X9440000D02*
D03*
X9490000D02*
D03*
X9540000D02*
D03*
X9590000D02*
D03*
X9640000D02*
D03*
X9690000D02*
D03*
X9740000D02*
D03*
X9790000D02*
D03*
X9840000D02*
D03*
X9890000D02*
D03*
X9940000D02*
D03*
Y7445000D02*
D03*
X9890000D02*
D03*
X9840000D02*
D03*
X9790000D02*
D03*
X9740000D02*
D03*
X9690000D02*
D03*
X9640000D02*
D03*
X9590000D02*
D03*
X9540000D02*
D03*
X9490000D02*
D03*
X9440000D02*
D03*
X9390000D02*
D03*
D13*
X9665000Y7105000D02*
D03*
D14*
X10525000Y5570500D02*
D03*
D15*
X10296000Y6229500D02*
D03*
X10525000D02*
D03*
X10754000D02*
D03*
D16*
X11025000Y6089300D02*
D03*
Y5860700D02*
D03*
D17*
X9207500Y8350000D02*
D03*
X9157500D02*
D03*
X9107500D02*
D03*
X9057500D02*
D03*
X9007500D02*
D03*
X8957500D02*
D03*
X9207500Y7950000D02*
D03*
X9157500D02*
D03*
X9107500D02*
D03*
X9057500D02*
D03*
X9007500D02*
D03*
X8957500D02*
D03*
D18*
X8885000Y8275000D02*
D03*
Y8225000D02*
D03*
Y8175000D02*
D03*
Y8125000D02*
D03*
Y8075000D02*
D03*
Y8025000D02*
D03*
X9280000Y8275000D02*
D03*
Y8225000D02*
D03*
Y8175000D02*
D03*
Y8125000D02*
D03*
Y8075000D02*
D03*
Y8025000D02*
D03*
D19*
X9082500Y8150000D02*
D03*
D20*
X9830000Y6607500D02*
D03*
X9680000D02*
D03*
D21*
X8600000Y6745000D02*
D03*
Y6555000D02*
D03*
X8830000Y6745000D02*
D03*
Y6555000D02*
D03*
D22*
X8902500Y7030000D02*
D03*
X8802500D02*
D03*
X8580000Y6905000D02*
D03*
X8680000D02*
D03*
X8902500D02*
D03*
X8802500D02*
D03*
X9440000Y7570000D02*
D03*
X9340000D02*
D03*
X8957500Y7825000D02*
D03*
X9057500D02*
D03*
X10351000Y8409500D02*
D03*
X10451000D02*
D03*
X10576000D02*
D03*
X10676000D02*
D03*
X10883500Y6892500D02*
D03*
X10983500D02*
D03*
X9715000Y7965000D02*
D03*
X9615000D02*
D03*
X9835000D02*
D03*
X9935000D02*
D03*
X10150000Y6725000D02*
D03*
X10250000D02*
D03*
X10145000Y6880000D02*
D03*
X10245000D02*
D03*
X10047500Y6610000D02*
D03*
X9947500D02*
D03*
D23*
X8980000Y7405000D02*
D03*
Y7255000D02*
D03*
X10858500Y6767500D02*
D03*
Y6617500D02*
D03*
X11008500Y6767500D02*
D03*
Y6617500D02*
D03*
D24*
X11540000Y6895000D02*
D03*
Y7570000D02*
D03*
D25*
Y7117500D02*
D03*
D26*
Y7387500D02*
D03*
D27*
X11282500Y6983750D02*
D03*
Y7481250D02*
D03*
D28*
X11274000Y7102500D02*
D03*
Y7167500D02*
D03*
Y7232500D02*
D03*
Y7297500D02*
D03*
Y7362500D02*
D03*
D29*
X10630000Y7105000D02*
D03*
Y7200000D02*
D03*
Y7295000D02*
D03*
X10870000D02*
D03*
Y7200000D02*
D03*
Y7105000D02*
D03*
D30*
X9847500Y5385000D02*
D03*
X8852500D02*
D03*
D31*
X9662500Y5665000D02*
D03*
X9287500D02*
D03*
X9537500D02*
D03*
X9412500D02*
D03*
X9162500D02*
D03*
X9037500D02*
D03*
D33*
X10395700Y6422500D02*
D03*
X10624300D02*
D03*
%TF.MD5,fc51bd09fe3571720ce2d9cbcc3fb3e9*%
M02*
