%TF.GenerationSoftware,Altium Limited,Altium Designer,24.6.1 (21)*%
G04 Layer_Color=65535*
%FSLAX45Y45*%
%MOMM*%
%TF.SameCoordinates,998BC942-C911-4A9E-BC0A-61954E215518*%
%TF.FilePolarity,Positive*%
%TF.FileFunction,Legend,Top*%
%TF.Part,Single*%
G01*
G75*
%TA.AperFunction,NonConductor*%
%ADD47C,0.25000*%
%ADD48C,0.25400*%
%ADD49C,0.20000*%
%ADD50C,0.30000*%
%ADD51C,0.17500*%
D47*
X9242500Y7460000D02*
G03*
X9242500Y7460000I-12500J0D01*
G01*
X10887500Y6229500D02*
G03*
X10887500Y6229500I-12500J0D01*
G01*
X9220000Y8445000D02*
G03*
X9220000Y8445000I-12500J0D01*
G01*
X11132500Y7100000D02*
G03*
X11132500Y7100000I-12500J0D01*
G01*
D48*
X8956788Y5706328D02*
G03*
X8956788Y5706328I-10270J0D01*
G01*
X9213706Y5949533D02*
X9192880Y5970360D01*
X9151227D01*
X9130400Y5949533D01*
Y5866227D01*
X9151227Y5845400D01*
X9192880D01*
X9213706Y5866227D01*
Y5907880D01*
X9172053D01*
X9255360Y5845400D02*
Y5970360D01*
X9317839D01*
X9338666Y5949533D01*
Y5907880D01*
X9317839Y5887053D01*
X9255360D01*
X9380319Y5970360D02*
X9421973D01*
X9401146D01*
Y5845400D01*
X9380319D01*
X9421973D01*
X9546932Y5970360D02*
X9505279D01*
X9484452Y5949533D01*
Y5866227D01*
X9505279Y5845400D01*
X9546932D01*
X9567759Y5866227D01*
Y5949533D01*
X9546932Y5970360D01*
X11187900Y6737860D02*
Y6633726D01*
X11208726Y6612900D01*
X11250380D01*
X11271206Y6633726D01*
Y6737860D01*
X11396166Y6717033D02*
X11375339Y6737860D01*
X11333686D01*
X11312860Y6717033D01*
Y6696206D01*
X11333686Y6675380D01*
X11375339D01*
X11396166Y6654553D01*
Y6633726D01*
X11375339Y6612900D01*
X11333686D01*
X11312860Y6633726D01*
X11437819Y6737860D02*
Y6612900D01*
X11500299D01*
X11521126Y6633726D01*
Y6654553D01*
X11500299Y6675380D01*
X11437819D01*
X11500299D01*
X11521126Y6696206D01*
Y6717033D01*
X11500299Y6737860D01*
X11437819D01*
X10336206Y7844533D02*
X10315380Y7865360D01*
X10273726D01*
X10252900Y7844533D01*
Y7823706D01*
X10273726Y7802880D01*
X10315380D01*
X10336206Y7782053D01*
Y7761227D01*
X10315380Y7740400D01*
X10273726D01*
X10252900Y7761227D01*
X10377860Y7865360D02*
Y7740400D01*
X10419513Y7782053D01*
X10461166Y7740400D01*
Y7865360D01*
X10502819D02*
Y7740400D01*
X10565299D01*
X10586126Y7761227D01*
Y7844533D01*
X10565299Y7865360D01*
X10502819D01*
D49*
X9295000Y7432500D02*
Y7475000D01*
X9337500D01*
X9992500D02*
X10035000D01*
Y7432500D02*
Y7475000D01*
Y6735000D02*
Y6777500D01*
X9992500Y6735000D02*
X10035000D01*
X9295000D02*
Y6777500D01*
Y6735000D02*
X9337500D01*
X10199750Y6075250D02*
X10850250D01*
X10199750Y5724750D02*
Y6075250D01*
Y5724750D02*
X10850250D01*
Y6075250D01*
X9265000Y8365000D02*
X9297500D01*
Y8332500D02*
Y8365000D01*
X8867500D02*
X8900000D01*
X8867500Y8332500D02*
Y8365000D01*
Y7935000D02*
Y7967500D01*
Y7935000D02*
X8900000D01*
X9265000D02*
X9297500D01*
Y7967500D01*
X8491927Y6460715D02*
X8615000D01*
X8491927D02*
Y6550000D01*
X11170000Y6828000D02*
Y6875000D01*
Y7590000D02*
Y7637000D01*
X11437500D01*
X11170000Y6828000D02*
X11437500D01*
D50*
X10826135Y7025004D02*
X10912775D01*
X9950000Y5300000D02*
Y5675000D01*
X9825000Y5800000D02*
X9950000Y5675000D01*
X8875000Y5800000D02*
X9825000D01*
X8750000Y5675000D02*
X8875000Y5800000D01*
X8750000Y5300000D02*
Y5675000D01*
D51*
X11314715Y5834715D02*
Y5960000D01*
X11185285D02*
X11314715D01*
X11185285Y5834715D02*
Y5960000D01*
X10223000Y7923500D02*
Y8303500D01*
Y7923500D02*
X10803000D01*
X10923000Y8043500D01*
Y8183500D01*
X10803000Y8303500D02*
X10923000Y8183500D01*
X10223000Y8303500D02*
X10803000D01*
X10179715Y6944715D02*
X10305000D01*
Y6815285D02*
Y6944715D01*
X10179715Y6815285D02*
X10305000D01*
%TF.MD5,c1c425cc68c6f1b8c8d6344b03775e88*%
M02*
